<?xml version="1.0" encoding="UTF-8" standalone="no"?>
<svg width="16" height="16" version="1.1" xmlns="http://www.w3.org/2000/svg">
    <g color="#bebebe">
        <path d="M 7,1 C 5.3553016,1 4,2.3553016 4,4 V 7 H 3 C 2.4460006,7 2,7.4460006 2,8 v 2 1 3 H 14 V 13 H 8.09375 C 7.478764,13 7,12.521236 7,11.90625 V 7 H 6 V 4 C 6,3.4287006 6.4287006,3 7,3 8.6389984,3 10.126402,3 11.826172,3 11.410312,1.8398601 10.294986,1 9,1 Z" fill="context-fill" stroke="context-stroke" fill-opacity="context-fill-opacity" stroke-opacity="context-stroke-opacity" overflow="visible"/>
        <path class="warning" d="M 8.875,4 A 0.863,0.863 0 0 0 8,4.875 v 6.25 C 8,11.617 8.383,12 8.875,12 h 6.25 A 0.863,0.863 0 0 0 16,11.125 V 4.875 A 0.863,0.863 0 0 0 15.125,4 Z M 11,5 h 2 v 2.5 c 0,0 0,0.5 -0.5,0.5 h -1 C 11,8 11,7.5 11,7.5 Z m 0.5,4 h 1 C 12.777,9 13,9.223 13,9.5 v 1 c 0,0.277 -0.223,0.5 -0.5,0.5 h -1 A 0.499,0.499 0 0 1 11,10.5 v -1 C 11,9.223 11.223,9 11.5,9 Z" fill="#f57900" overflow="visible"/>
    </g>
</svg>
